<svg xmlns="http://www.w3.org/2000/svg" xmlns:xlink="http://www.w3.org/1999/xlink" width="250.746" height="66.289" viewBox="0 0 250.746 66.289"><defs><style>.a{fill:url(#a);}.b{fill:#de1c4c;}</style><linearGradient id="a" x1="-0.043" y1="0.48" x2="0.956" y2="0.48" gradientUnits="objectBoundingBox"><stop offset="0" stop-color="#292a2b"/><stop offset="1" stop-color="#292a2b" stop-opacity="0.302"/></linearGradient></defs><g transform="translate(448.941 5646.016)"><path class="a" d="M193.03,80.748c6.574.01,9.845,5.577,6.561,9.283l-29.384-.043-.04,28.108-9.408,8.953.069-46.349,32.2.048" transform="translate(-609.696 -5726.716)"/><path class="b" d="M333.5,90.287,320.33,103.25l26.262,26,13.15.019-26.262-26,6.566-6.415a9.273,9.273,0,0,0-6.534-15.839L326.938,81C333.513,81.014,336.784,86.582,333.5,90.287Z" transform="translate(-743.604 -5726.968)"/><path class="b" d="M160.735,277.166l18.478-17.586,6.232,6.171-15.321,14.585-9.394-.013Z" transform="translate(-609.671 -5875.882)"/><path class="b" d="M578.014,197.993c0-4.717,2.711-8.5,8.9-8.49,0,0,10.852.076,10.852.016,0,0,.064-2.713,0-2.774,0-3.509-1.713-4.313-4.516-4.318-3.35,0-10.368.413-14.17.682v-4.5c4.241-1.473,9-1.967,14.956-2,6.208-.029,10.72,2.48,10.709,9.934l-.034,22.7-5.447-.008-1.542-3.649c-.269.442-5.962,4.064-11.069,3.992-5.519-.113-8.667-3.816-8.66-8.329Zm10.183,5.65c4,0,9.55-2.681,9.55-2.681l.01-6.87-9.794.719c-2.361.216-2.948,1.9-2.949,3.491v2.091c-.014,2.741,1.451,3.248,3.186,3.25Z" transform="translate(-959.659 -5806.546)"/><path class="b" d="M805.233,100.335a29.98,29.98,0,0,1,10.465,2.216l.024-17.031,6.956.01-.071,47.33-5.579-.01-1.391-3.348a20.222,20.222,0,0,1-10.453,3.7c-8.194-.011-10.476-7.211-10.463-16.233C794.736,107.469,796.277,100.322,805.233,100.335Zm1.354,26.648a19.108,19.108,0,0,0,9.056-2.251l.026-17.208a27.5,27.5,0,0,0-9.051-1.349c-3.1,0-4.889,1.816-4.9,10.588C801.7,124.154,803.428,126.978,806.587,126.983Z" transform="translate(-1141.446 -5730.761)"/><path class="b" d="M1021.72,113.985a1.346,1.346,0,0,1,1.447-1.5h5.125a1.348,1.348,0,0,1,1.364,1.51l-.008,4.585a1.252,1.252,0,0,1-1.367,1.385l-5.125-.008a1.348,1.348,0,0,1-1.447-1.388Zm.4,9.488,6.994.01-.047,32.019h-6.989Z" transform="translate(-1331.869 -5753.385)"/><path class="b" d="M1118.03,187.622c.008-4.944,2.123-8.377,8.334-8.363,5.054,0,13.887.388,16.6,1.41v4.64l-14.956-.023c-2.782,0-2.975.976-2.977,2.689v1.93c0,2.493,1.266,2.573,2.969,2.573l8.3.013c5.789.008,8.256,3.5,8.248,8.1v3.165c-.01,6.573-3.99,8.134-7.85,8.128-4.937,0-15.117-.526-17.369-1.55v-4.561l15.633.022a2.283,2.283,0,0,0,2.573-2.472V201.3c0-1.626-.51-2.536-2.573-2.539l-8.218-.011c-5.667-.01-8.739-2.145-8.729-8.355Z" transform="translate(-1412.625 -5808.759)"/><path class="b" d="M1324.71,181.331l6.309,23.362a2.952,2.952,0,0,0,3.49,2.358l7.451-25.694,7.411.011-12.251,42.125-4.447,6.143-4.841-.008,4.952-16.27c-3.29,0-6.973-1.483-8.684-7.616l-6.809-24.422Z" transform="translate(-1579.675 -5809.363)"/><path class="b" d="M1551.43,188.262c0-4.944,2.123-8.377,8.332-8.363,5.056,0,13.888.388,16.6,1.412v4.638l-14.956-.021c-2.782,0-2.973.975-2.975,2.687v1.93c0,2.493,1.266,2.573,2.969,2.573l8.3.013c5.79,0,8.255,3.5,8.249,8.107V204.4c-.01,6.571-3.992,8.133-7.85,8.128-4.939-.008-15.117-.526-17.369-1.552v-4.561l15.633.024a2.284,2.284,0,0,0,2.573-2.472v-2.026c0-1.624-.508-2.536-2.573-2.539l-8.218-.011c-5.667-.008-8.739-2.145-8.731-8.363Z" transform="translate(-1776.144 -5809.292)"/></g></svg>